<svg width="43" height="44" viewBox="0 0 43 44" fill="none" xmlns="http://www.w3.org/2000/svg">
<rect x="13" y="14" width="30" height="30" fill="white"/>
<path fill-rule="evenodd" clip-rule="evenodd" d="M0.5 36.5V5C0.5 2.51472 2.51472 0.5 5 0.5H31C33.4853 0.5 35.5 2.51472 35.5 5V25.5C35.5 34.0604 28.5604 41 20 41H5C2.51472 41 0.5 38.9853 0.5 36.5ZM2 5V36.5C2 38.1569 3.34315 39.5 5 39.5H20C27.732 39.5 34 33.232 34 25.5V5C34 3.34314 32.6569 2 31 2H5C3.34315 2 2 3.34315 2 5Z" fill="#8092CE"/>
<path fill-rule="evenodd" clip-rule="evenodd" d="M5.25 11.5C5.25 11.0858 5.58579 10.75 6 10.75H29.5C29.9142 10.75 30.25 11.0858 30.25 11.5C30.25 11.9142 29.9142 12.25 29.5 12.25H6C5.58579 12.25 5.25 11.9142 5.25 11.5ZM5.25 18C5.25 17.5858 5.58579 17.25 6 17.25H25.5C25.9142 17.25 26.25 17.5858 26.25 18C26.25 18.4142 25.9142 18.75 25.5 18.75H6C5.58579 18.75 5.25 18.4142 5.25 18ZM5.25 24.5C5.25 24.0858 5.58579 23.75 6 23.75H19C19.4142 23.75 19.75 24.0858 19.75 24.5C19.75 24.9142 19.4142 25.25 19 25.25H6C5.58579 25.25 5.25 24.9142 5.25 24.5Z" fill="#8092CE"/>
</svg>
