<svg width="49" height="43" viewBox="0 0 49 43" fill="none" xmlns="http://www.w3.org/2000/svg">
<rect x="19" y="13" width="30" height="30" fill="white"/>
<path fill-rule="evenodd" clip-rule="evenodd" d="M4.5 2.25C3.25736 2.25 2.25 3.25736 2.25 4.5V33C2.25 34.2426 3.25736 35.25 4.5 35.25H24.5C25.7426 35.25 26.75 34.2426 26.75 33V10.8226L17.7011 2.25H4.5ZM0.75 4.5C0.75 2.42893 2.42893 0.75 4.5 0.75H18.2989L28.25 10.1774V33C28.25 35.0711 26.5711 36.75 24.5 36.75H4.5C2.42893 36.75 0.75 35.0711 0.75 33V4.5Z" fill="#8092CE"/>
<path fill-rule="evenodd" clip-rule="evenodd" d="M17.5 0.75C17.9142 0.75 18.25 1.08579 18.25 1.5V8C18.25 9.24264 19.2574 10.25 20.5 10.25H27C27.4142 10.25 27.75 10.5858 27.75 11C27.75 11.4142 27.4142 11.75 27 11.75H20.5C18.4289 11.75 16.75 10.0711 16.75 8V1.5C16.75 1.08579 17.0858 0.75 17.5 0.75Z" fill="#8092CE"/>
<path fill-rule="evenodd" clip-rule="evenodd" d="M5.75 11C5.75 10.5858 6.08579 10.25 6.5 10.25H13.5C13.9142 10.25 14.25 10.5858 14.25 11C14.25 11.4142 13.9142 11.75 13.5 11.75H6.5C6.08579 11.75 5.75 11.4142 5.75 11ZM5.75 16C5.75 15.5858 6.08579 15.25 6.5 15.25H22C22.4142 15.25 22.75 15.5858 22.75 16C22.75 16.4142 22.4142 16.75 22 16.75H6.5C6.08579 16.75 5.75 16.4142 5.75 16ZM5.75 21C5.75 20.5858 6.08579 20.25 6.5 20.25H22C22.4142 20.25 22.75 20.5858 22.75 21C22.75 21.4142 22.4142 21.75 22 21.75H6.5C6.08579 21.75 5.75 21.4142 5.75 21ZM5.75 26C5.75 25.5858 6.08579 25.25 6.5 25.25H22C22.4142 25.25 22.75 25.5858 22.75 26C22.75 26.4142 22.4142 26.75 22 26.75H6.5C6.08579 26.75 5.75 26.4142 5.75 26ZM5.75 31C5.75 30.5858 6.08579 30.25 6.5 30.25H22C22.4142 30.25 22.75 30.5858 22.75 31C22.75 31.4142 22.4142 31.75 22 31.75H6.5C6.08579 31.75 5.75 31.4142 5.75 31Z" fill="#8092CE"/>
<path fill-rule="evenodd" clip-rule="evenodd" d="M27.25 7C27.25 6.58579 27.5858 6.25 28 6.25H34.7989L44.75 15.6774V38.5C44.75 40.5711 43.0711 42.25 41 42.25H21C18.9289 42.25 17.25 40.5711 17.25 38.5V38C17.25 37.5858 17.5858 37.25 18 37.25C18.4142 37.25 18.75 37.5858 18.75 38V38.5C18.75 39.7426 19.7574 40.75 21 40.75H41C42.2426 40.75 43.25 39.7426 43.25 38.5V16.3226L34.2011 7.75H28C27.5858 7.75 27.25 7.41421 27.25 7Z" fill="#8092CE"/>
<path fill-rule="evenodd" clip-rule="evenodd" d="M34 6.25C34.4142 6.25 34.75 6.58579 34.75 7V13.5C34.75 14.7426 35.7574 15.75 37 15.75H43.5C43.9142 15.75 44.25 16.0858 44.25 16.5C44.25 16.9142 43.9142 17.25 43.5 17.25H37C34.9289 17.25 33.25 15.5711 33.25 13.5V7C33.25 6.58579 33.5858 6.25 34 6.25Z" fill="#8092CE"/>
<path fill-rule="evenodd" clip-rule="evenodd" d="M30.25 21.5C30.25 21.0858 30.5858 20.75 31 20.75H38.5C38.9142 20.75 39.25 21.0858 39.25 21.5C39.25 21.9142 38.9142 22.25 38.5 22.25H31C30.5858 22.25 30.25 21.9142 30.25 21.5ZM30.25 26.5C30.25 26.0858 30.5858 25.75 31 25.75H38.5C38.9142 25.75 39.25 26.0858 39.25 26.5C39.25 26.9142 38.9142 27.25 38.5 27.25H31C30.5858 27.25 30.25 26.9142 30.25 26.5ZM30.25 31.5C30.25 31.0858 30.5858 30.75 31 30.75H38.5C38.9142 30.75 39.25 31.0858 39.25 31.5C39.25 31.9142 38.9142 32.25 38.5 32.25H31C30.5858 32.25 30.25 31.9142 30.25 31.5ZM30.25 36.5C30.25 36.0858 30.5858 35.75 31 35.75H38.5C38.9142 35.75 39.25 36.0858 39.25 36.5C39.25 36.9142 38.9142 37.25 38.5 37.25H31C30.5858 37.25 30.25 36.9142 30.25 36.5Z" fill="#8092CE"/>
</svg>
