<svg width="46" height="43" viewBox="0 0 46 43" fill="none" xmlns="http://www.w3.org/2000/svg">
<rect x="16" y="13" width="30" height="30" fill="white"/>
<path fill-rule="evenodd" clip-rule="evenodd" d="M8.10951 0.75H36.3905L43.9474 11.5456L22.5068 36.6468L0.54847 11.5515L8.10951 0.75ZM8.32838 3.05301L11.4977 10.75H2.94049L8.32838 3.05301ZM3.15283 12.25L20.0821 31.5977L12.1154 12.25H3.15283ZM13.7376 12.25L22.4874 33.4995L30.9247 12.25H13.7376ZM32.5386 12.25L24.8647 31.5768L41.373 12.25H32.5386ZM41.5595 10.75H33.1342L36.1836 3.07006L41.5595 10.75ZM34.8952 2.25H24.3535L31.7675 10.1274L34.8952 2.25ZM30.2936 10.75L22.6013 2.57697L14.4283 10.75H30.2936ZM12.8828 10.1742L20.807 2.25H9.61992L12.8828 10.1742Z" fill="#8092CE"/>
</svg>
