<svg width="47" height="41" viewBox="0 0 47 41" fill="none" xmlns="http://www.w3.org/2000/svg">
<rect x="17" y="11" width="30" height="30" fill="white"/>
<path fill-rule="evenodd" clip-rule="evenodd" d="M19.5 27.5C23.9183 27.5 27.5 23.9183 27.5 19.5C27.5 15.0817 23.9183 11.5 19.5 11.5C15.0817 11.5 11.5 15.0817 11.5 19.5C11.5 23.9183 15.0817 27.5 19.5 27.5ZM19.5 29C24.7467 29 29 24.7467 29 19.5C29 14.2533 24.7467 10 19.5 10C14.2533 10 10 14.2533 10 19.5C10 24.7467 14.2533 29 19.5 29Z" fill="#8092CE"/>
<path fill-rule="evenodd" clip-rule="evenodd" d="M24.75 10C24.75 9.58579 25.0858 9.25 25.5 9.25C31.1609 9.25 35.75 13.8391 35.75 19.5C35.75 25.1609 31.1609 29.75 25.5 29.75C25.0858 29.75 24.75 29.4142 24.75 29C24.75 28.5858 25.0858 28.25 25.5 28.25C30.3325 28.25 34.25 24.3325 34.25 19.5C34.25 14.6675 30.3325 10.75 25.5 10.75C25.0858 10.75 24.75 10.4142 24.75 10Z" fill="#8092CE"/>
<path fill-rule="evenodd" clip-rule="evenodd" d="M22.3904 1.75C14.2277 1.75 7.28146 6.96647 4.70712 14.2499C4.56909 14.6405 4.14059 14.8452 3.75006 14.7071C3.35952 14.5691 3.15483 14.1406 3.29286 13.7501C6.0724 5.88603 13.5723 0.25 22.3904 0.25C31.2086 0.25 38.7084 5.88603 41.4879 13.7501C41.626 14.1406 41.4213 14.5691 41.0308 14.7071C40.6402 14.8452 40.2117 14.6405 40.0737 14.2499C37.4994 6.96647 30.5531 1.75 22.3904 1.75Z" fill="#8092CE"/>
<path fill-rule="evenodd" clip-rule="evenodd" d="M22.6096 37.25C30.7723 37.25 37.7185 32.0335 40.2929 24.7501C40.4309 24.3595 40.8594 24.1548 41.2499 24.2929C41.6405 24.4309 41.8452 24.8594 41.7071 25.2499C38.9276 33.114 31.4277 38.75 22.6096 38.75C13.7914 38.75 6.2916 33.114 3.51206 25.2499C3.37402 24.8594 3.57871 24.4309 3.96925 24.2929C4.35979 24.1548 4.78828 24.3595 4.92632 24.7501C7.50065 32.0335 14.4469 37.25 22.6096 37.25Z" fill="#8092CE"/>
<path fill-rule="evenodd" clip-rule="evenodd" d="M44.4881 12.9306C44.8026 13.2001 44.839 13.6736 44.5695 13.9881L41.1496 17.9779L36.6025 15.136C36.2513 14.9165 36.1445 14.4538 36.364 14.1025C36.5835 13.7513 37.0463 13.6445 37.3975 13.864L40.8504 16.0221L43.4306 13.0119C43.7001 12.6974 44.1736 12.661 44.4881 12.9306Z" fill="#8092CE"/>
<path fill-rule="evenodd" clip-rule="evenodd" d="M0.511898 26.0694C0.197403 25.7999 0.160982 25.3264 0.430549 25.0119L3.85041 21.0221L8.39749 23.864C8.74874 24.0835 8.85552 24.5462 8.63599 24.8975C8.41646 25.2487 7.95374 25.3555 7.60249 25.136L4.14958 22.9779L1.56943 25.9881C1.29987 26.3026 0.826392 26.339 0.511898 26.0694Z" fill="#8092CE"/>
</svg>
