<svg width="13" height="11" viewBox="0 0 13 11" fill="none" xmlns="http://www.w3.org/2000/svg">
<path d="M1.24774 3.14842C1.41219 3.26447 1.9079 3.60912 2.73489 4.18219C3.56191 4.75527 4.19546 5.19653 4.63557 5.50598C4.68392 5.53991 4.78665 5.61364 4.94381 5.7273C5.10099 5.84103 5.23159 5.93294 5.33552 6.00304C5.43952 6.07312 5.56524 6.15173 5.71282 6.23876C5.86034 6.32571 5.99941 6.39111 6.12998 6.43441C6.26059 6.47806 6.38148 6.49969 6.4927 6.49969H6.49999H6.50731C6.61853 6.49969 6.73947 6.47804 6.87008 6.43441C7.0006 6.39111 7.13979 6.32563 7.28719 6.23876C7.43467 6.15163 7.56039 6.07309 7.66439 6.00304C7.76839 5.93294 7.89889 5.84103 8.05612 5.7273C8.21325 5.61354 8.31611 5.53991 8.36447 5.50598C8.80933 5.19653 9.94113 4.4106 11.7595 3.14827C12.1125 2.90173 12.4075 2.60423 12.6444 2.256C12.8816 1.90792 13 1.54277 13 1.16074C13 0.8415 12.8851 0.568225 12.6553 0.34094C12.4256 0.113604 12.1535 0 11.8392 0H1.16066C0.788294 0 0.501729 0.125725 0.301022 0.377173C0.100341 0.628673 0 0.943035 0 1.32023C0 1.62492 0.133042 1.95508 0.399 2.31053C0.664932 2.666 0.947939 2.94533 1.24774 3.14842Z" fill="white"/>
<path d="M12.2744 3.92457C10.6883 4.99813 9.48391 5.83247 8.66185 6.4274C8.38618 6.63044 8.16256 6.78894 7.99082 6.90252C7.81908 7.01618 7.59067 7.13224 7.30528 7.25068C7.01999 7.36929 6.7541 7.42841 6.50741 7.42841H6.50001H6.49272C6.24607 7.42841 5.98004 7.36929 5.69475 7.25068C5.40945 7.13224 5.1809 7.01618 5.00921 6.90252C4.83757 6.78894 4.61387 6.63044 4.33823 6.4274C3.68529 5.94864 2.48349 5.11425 0.732774 3.92457C0.457034 3.74091 0.212802 3.5304 0 3.29346V9.05333C0 9.37272 0.113604 9.64584 0.34094 9.87315C0.568224 10.1005 0.841525 10.2142 1.16074 10.2142H11.8393C12.1585 10.2142 12.4318 10.1005 12.6591 9.87315C12.8864 9.64577 13 9.37275 13 9.05333V3.29346C12.792 3.52549 12.5503 3.73601 12.2744 3.92457Z" fill="white"/>
</svg>
