<svg width="16" height="16" viewBox="0 0 16 16" fill="none" xmlns="http://www.w3.org/2000/svg">
<path fill-rule="evenodd" clip-rule="evenodd" d="M2 7.19995C2 3.85709 4.65714 1.19995 8 1.19995C11.3429 1.19995 14 3.85709 13.9143 7.19995C13.9143 8.82852 13.3143 10.3714 12.1143 11.4857C12.1143 11.5498 10.149 13.2915 9.12193 14.2018C8.77557 14.5088 8.5359 14.7212 8.51429 14.7428C8.25714 15 7.74286 15 7.4 14.7428C7.35714 14.7 6.47857 13.9071 5.6 13.1142C4.72143 12.3214 3.84286 11.5285 3.8 11.4857C2.6 10.3714 2 8.82852 2 7.19995ZM6.28571 7.19995C6.28571 8.14281 7.05714 8.91424 8 8.91424C8.94286 8.91424 9.71429 8.14281 9.71429 7.19995C9.71429 6.25709 8.94286 5.48567 8 5.48567C7.05714 5.48567 6.28571 6.25709 6.28571 7.19995Z" fill="white"/>
</svg>
