<svg width="43" height="35" viewBox="0 0 43 35" fill="none" xmlns="http://www.w3.org/2000/svg">
<path d="M33.54 35C30.9027 35 28.6667 34.0372 26.832 32.1116C24.9973 30.0728 24.08 27.3544 24.08 23.9563C24.08 19.0858 24.8253 15.1214 26.316 12.0631C27.8067 8.89158 29.4693 6.39967 31.304 4.58738C33.368 2.54854 35.8333 1.01942 38.7 0L40.42 2.71845C38.4707 3.6246 36.7507 4.70065 35.26 5.94661C33.9987 7.07929 32.7947 8.43851 31.648 10.0243C30.616 11.4968 30.1 13.3091 30.1 15.4612C30.1 16.254 30.2147 16.877 30.444 17.3301C30.5587 17.6699 30.7307 17.8964 30.96 18.0097C31.1893 17.8964 31.5333 17.7832 31.992 17.6699C32.336 17.5566 32.68 17.4434 33.024 17.3301C33.4827 17.2168 33.9413 17.1602 34.4 17.1602C37.0373 17.1602 39.1013 17.9531 40.592 19.5388C42.1973 21.0113 43 23.0502 43 25.6553C43 28.2605 42.0827 30.4693 40.248 32.2815C38.4133 34.0938 36.1773 35 33.54 35ZM9.46 35C6.82267 35 4.58667 34.0372 2.752 32.1116C0.917333 30.0728 0 27.3544 0 23.9563C0 19.0858 0.745333 15.1214 2.236 12.0631C3.72667 8.89158 5.38933 6.39967 7.224 4.58738C9.288 2.54854 11.7533 1.01942 14.62 0L16.34 2.71845C14.3907 3.6246 12.6707 4.70065 11.18 5.94661C9.91867 7.07929 8.71467 8.43851 7.568 10.0243C6.536 11.4968 6.02 13.3091 6.02 15.4612C6.02 16.254 6.13467 16.877 6.364 17.3301C6.47867 17.6699 6.65067 17.8964 6.88 18.0097C7.10933 17.8964 7.45333 17.7832 7.912 17.6699C8.256 17.5566 8.6 17.4434 8.944 17.3301C9.40267 17.2168 9.86133 17.1602 10.32 17.1602C12.9573 17.1602 15.0213 17.9531 16.512 19.5388C18.1173 21.0113 18.92 23.0502 18.92 25.6553C18.92 28.2605 18.0027 30.4693 16.168 32.2815C14.3333 34.0938 12.0973 35 9.46 35Z" fill="#CFCFCF"/>
</svg>
