<svg width="43" height="35" viewBox="0 0 43 35" fill="none" xmlns="http://www.w3.org/2000/svg">
<path d="M9.46 -2.93216e-06C12.0973 -2.7016e-06 14.3333 0.962785 16.168 2.88835C18.0027 4.92719 18.92 7.64563 18.92 11.0437C18.92 15.9142 18.1747 19.8786 16.684 22.9369C15.1933 26.1084 13.5307 28.6003 11.696 30.4126C9.632 32.4515 7.16667 33.9806 4.3 35L2.58001 32.2815C4.52934 31.3754 6.24934 30.2993 7.74001 29.0534C9.00134 27.9207 10.2053 26.5615 11.352 24.9757C12.384 23.5032 12.9 21.6909 12.9 19.5388C12.9 18.746 12.7853 18.123 12.556 17.6699C12.4413 17.3301 12.2693 17.1036 12.04 16.9903C11.8107 17.1036 11.4667 17.2168 11.008 17.3301C10.664 17.4434 10.32 17.5566 9.976 17.6699C9.51734 17.7832 9.05867 17.8398 8.60001 17.8398C5.96267 17.8398 3.89867 17.0469 2.40801 15.4612C0.802671 13.9887 2.01511e-06 11.9498 2.24286e-06 9.34466C2.47061e-06 6.73948 0.917338 4.53074 2.75201 2.71845C4.58667 0.906151 6.82267 -3.16272e-06 9.46 -2.93216e-06ZM33.54 -8.27019e-07C36.1773 -5.96456e-07 38.4133 0.962787 40.248 2.88836C42.0827 4.92719 43 7.64564 43 11.0437C43 15.9142 42.2547 19.8786 40.764 22.9369C39.2733 26.1084 37.6107 28.6003 35.776 30.4126C33.712 32.4515 31.2467 33.9806 28.38 35L26.66 32.2815C28.6093 31.3754 30.3293 30.2994 31.82 29.0534C33.0813 27.9207 34.2853 26.5615 35.432 24.9757C36.464 23.5032 36.98 21.6909 36.98 19.5388C36.98 18.746 36.8653 18.123 36.636 17.6699C36.5213 17.3301 36.3493 17.1036 36.12 16.9903C35.8907 17.1036 35.5467 17.2168 35.088 17.3301C34.744 17.4434 34.4 17.5566 34.056 17.6699C33.5973 17.7832 33.1387 17.8398 32.68 17.8398C30.0427 17.8398 27.9787 17.0469 26.488 15.4612C24.8827 13.9887 24.08 11.9498 24.08 9.34466C24.08 6.73948 24.9973 4.53075 26.832 2.71845C28.6667 0.906153 30.9027 -1.05758e-06 33.54 -8.27019e-07Z" fill="#CFCFCF"/>
</svg>
