<?xml version="1.0" encoding="UTF-8"?>
<svg width="2083px" height="1076px" viewBox="0 0 2083 1076" xmlns="http://www.w3.org/2000/svg" xmlns:xlink="http://www.w3.org/1999/xlink" version="1.1">
 <!-- Generated by Pixelmator Pro 2.1.2 -->
 <path id="Путь" d="M57 452 L139 444 230 439 296 440 359 444 421 453 476 467 531 479 544 483 560 483 594 479 634 477 675 477 706 484 747 494 788 504 840 504 896 491 921 483 945 469 970 459 986 453 1020 426 1054 400 1088 376 1118 352 1133 339 1176 311 1216 281 1261 248 1297 222 1309 211 1334 194 1405 149 1437 131 1482 107 1498 103 1508 96 1526 81 1530 73 1534 64 1540 58 1547 55 1561 45 1576 40 1600 36 1632 32 1661 28 1677 24 1688 18 1693 15 1696 9 1698 4 1699 0 1696 17 1695 28 1691 44 1676 76 1650 115 1591 190 1536 265 1501 314 1457 364 1438 394 1426 417 1407 449 1392 475 1378 499 1366 523 1359 536 1359 545 1341 567 1318 596 1295 623 1280 645 1261 670 1251 680 1244 683 1234 680 1180 677 1172 674 1168 677 1133 664 1114 658 1105 656 1074 643 987 586 903 527 885 514 842 491 814 482 730 440 671 408 651 402 640 394 630 391 608 381 519 336 496 327 438 294 416 286 372 266 213 192 188 182 151 168 113 150 64 123 36 105 15 90 0 78 27 88 38 91 63 94 82 94 101 97 141 101 160 105 198 113 299 146 545 229 622 255 675 278 731 301 748 306 783 324 830 348 866 368 937 407 983 437 1013 457 1045 476 1079 497 1108 517 1153 553 1211 595 1258 630 1316 669 1401 720 1463 745 1564 777 M2083 942 L2082 937 2078 929 2070 922 2040 906 2004 888 1967 873 1903 849 1850 833 1759 812 1644 795 1564 777 M2027 1076 L2025 1072 2022 1065 2009 1049 1971 1013 1897 956 1824 908 1745 866 1665 828 1564 777 1396 774 1313 770 1189 749 1070 728 1027 722 955 703 877 683 859 681 825 670 778 652 735 628 680 603 655 590 618 566 598 546 627 554 656 564 698 582 736 605 766 626 808 663 807 663" fill="none" stroke="#000000" stroke-width="5" stroke-opacity="1" stroke-linejoin="round" stroke-linecap="round"/>
 <path id="Путь-1" d="M634 506 C627.439 500.241 626 500 626 500 L623 501" fill="none" stroke="#000000" stroke-width="5" stroke-opacity="1" stroke-linejoin="round" stroke-linecap="round"/>
</svg>
