<?xml version="1.0" encoding="UTF-8"?>
<svg width="168px" height="168px" viewBox="0 0 168 168" xmlns="http://www.w3.org/2000/svg" xmlns:xlink="http://www.w3.org/1999/xlink" version="1.1">
 <!-- Generated by Pixelmator Pro 2.1.2 -->
 <path id="Путь" d="M82.884 73.992 L83.237 73.448 C85.312 70.244 87.162 67.737 90.274 65.658 94.034 63.144 97.362 60.516 102 60 102.557 59.938 103.021 59.496 103.427 59.11 106.382 56.294 108.659 53.224 111.989 50.655 117.116 46.699 121.754 42.484 127.303 39.055 132.782 35.67 138.501 32.683 144.211 29.701 146.425 28.544 148.915 27.976 151.352 27.42 153.571 26.914 155.884 26.9 158.161 26.887 158.92 26.883 156.772 27.509 156.043 27.721 155.512 27.876 155.023 28.158 154.543 28.435 154.541 28.436 154.543 28.44 154.543 28.443 154.543 28.753 154.748 29.039 154.929 29.292 155.184 29.648 155.706 29.734 156.139 29.805 157.4 30.02 154.81 32.176 154.484 32.307 149.531 34.294 144.135 37.167 139.958 40.549 138.189 41.981 136.983 42.689 134.972 43.815 129.102 47.101 123.668 51.873 118.429 56.063 116.338 57.734 115.024 61.585 113.813 63.991 112.76 66.082 114.018 65.569 115.712 64.514 120.975 61.237 124.867 56.575 130.472 53.737 134.931 51.478 138.956 49.928 143.814 48.773 144.136 48.697 142.336 49.722 141.59 50.764 140.081 52.87 137.039 53.854 135.68 55.845 135.394 56.264 136.692 55.762 137.198 55.724 143.221 55.272 149.288 51.621 155.097 49.928 157.054 49.358 156.523 51.253 155.191 52.035 153.232 53.186 150.491 53.559 148.364 54.639 145.841 55.921 145.693 55.942 146.684 58.244 148.008 61.318 140.989 62.763 139.087 63.227 137.615 63.586 136.263 64.108 134.919 64.798 133.637 65.455 132.266 65.927 130.905 66.397 126.508 67.938 121.9 70.162 117.774 72.289 114.595 73.928 112.026 75.208 109.196 77.337 105.244 80.311 114.27 79.359 115.726 79.083 119.382 78.391 123.065 76.718 126.729 75.834 130.24 74.988 133.438 74.122 137.018 73.546 140.274 73.023 142.827 72.287 146.209 72.387 148.508 72.456 149.469 72.216 151.397 73.189 152.712 73.852 155.864 72.712 156.848 73.591 157.257 73.955 154.292 75.662 153.959 75.781 147.478 78.097 141.146 80.226 134.513 81.999 131.273 82.866 128.51 84.244 125.165 84.945 124.123 85.163 123.179 85.616 122.196 86 121.104 86.427 119.963 86.722 118.829 87.016 118.674 87.056 118.597 87.249 118.538 87.397 118.196 88.272 115.099 89.525 114.293 89.946 111.075 91.628 107.431 92.243 104.301 93.971 102.543 94.942 100.657 95.208 98.916 96.075 96.952 97.053 96.658 100.116 99.424 99.819 102.195 99.521 103.275 99.741 105.503 97.872 109.874 94.204 113.972 93.93 119.37 93.632 124.759 93.334 129.602 90.365 135.137 90.299 139.151 90.251 143.6 89.854 147.586 90.295 148.041 90.345 146.831 90.818 146.418 91.016 142.421 92.928 137.102 93.662 133.597 96.493 132.121 97.676 137.699 96.162 135.373 98.907 133.208 101.464 128.082 101.829 125.059 103.221 120.989 105.094 116.405 105.346 112.377 107.139 110.635 107.914 114.969 108.661 115.304 108.67 122.063 108.859 129.235 108.141 135.905 107.037 136.57 106.927 136.893 106.59 135.965 106.991 132.796 108.363 130.229 110.264 126.929 111.408 122.804 112.838 119.122 114.126 114.784 114.945 111.635 115.54 106.287 115.531 103.531 117.424 102.869 117.879 106.404 118.513 106.623 118.537 113.19 119.266 120.514 118.771 127.121 118.355 130.331 118.153 133.774 117.286 136.895 116.456 137.391 116.324 136.467 117.406 136.134 117.796 133.583 120.774 125.893 122.159 122.091 123.004 121.051 123.235 109.821 124.102 115.645 126.626 120.237 128.616 124.623 126.416 129.108 126.613 130.897 126.692 125.701 128.631 125.273 128.821 122.738 129.942 120.166 130.359 117.416 130.541 116.922 130.574 116.433 130.669 115.947 130.764 113.352 131.267 110.299 131.213 107.702 131.511 107.164 131.572 100.87 131.635 104.357 132.756 107.809 133.866 111.593 134.104 115.131 135.218 119.755 136.674 124.583 138.237 129.244 139.452 129.691 139.569 131.944 139.339 132.102 139.483 132.425 139.779 128.39 142.164 128.166 142.269 123.996 144.223 117.166 143.015 112.615 142.795 111.943 142.762 108.78 142.142 108.152 143.018 107.755 143.572 109.466 143.382 110.127 143.547 113.964 144.505 120.906 146.705 120.686 146.808 M120.762 146.721 C120.742 146.753 120.65 146.824 120.686 146.808 120.861 146.726 120.76 147.199 120.719 147.389 120.185 149.865 113.309 150.157 111.464 150.278 108.29 150.486 104.663 149.943 101.62 150.38 101.408 150.41 103.409 152.811 103.27 153.926 102.857 157.231 96.308 157.188 93.824 156.326 90.55 155.19 89.927 157.797 92.972 159.085 96.575 160.61 102.017 162.713 104.685 165.734 104.822 165.889 106.646 167.935 106.68 167.909 106.712 167.883 106.73 167.844 106.754 167.811" fill="none" stroke="#000000" stroke-width="1" stroke-opacity="1" stroke-linejoin="round" stroke-linecap="round"/>
 <path id="Путь-1" d="M66.975 72.163 L67.019 71.851 C67.574 67.916 69.932 64.48 70.078 60.313 70.105 59.549 70.858 55.948 70.343 55.456 69.856 54.993 69.534 56.529 69.137 57.072 67.203 59.712 65.462 63.921 62.944 66.003 60.522 68.005 60.86 62.196 60.944 61.424 61.559 55.785 63.185 50.296 63.934 44.634 64.237 42.348 64.801 40.647 63.771 38.576 63.747 38.528 63.686 38.505 63.634 38.487 62.663 38.139 62.525 36.964 61.654 38.714 61.297 39.43 58.862 45.218 57.238 43.954 55.248 42.406 57.462 37.02 58.069 35.252 59.78 30.27 60.216 25.08 61.798 20.127 61.846 19.976 61.9 19.826 61.952 19.676 62.018 19.484 62.174 19.33 62.319 19.187 63.069 18.438 63.31 14.389 63.568 13.218 64.491 9.04 63.474 4.722 63.467 0.544 63.466 -0.008 62.76 1.407 62.532 1.909 60.871 5.568 62.602 9.609 61.308 13.095 60.772 14.536 59.086 9.782 58.063 11.172 56.745 12.961 56.109 16.042 55.146 18.091 53.666 21.245 52.851 25.209 51.79 28.53 51.377 29.821 49.586 34.628 50.635 35.796 52.296 37.646 53.212 32.076 53.253 31.525 53.308 30.788 52.908 25.318 51.323 28.632 49.924 31.557 49.855 34.27 47.726 36.925 46.079 38.981 46.224 41.715 45.402 44.126 45.329 44.341 45.115 44.486 44.927 44.614 42.42 46.336 42.107 48.307 40.897 51.053 40.436 52.101 40.008 47.881 40.004 47.497 39.975 44.058 39.484 41.16 38.759 37.888 38.396 36.252 37.107 36.945 37.086 39.217 37.058 42.161 38.523 46.978 36.864 49.591 36.104 50.789 33.669 45.396 33.076 49.171 32.654 51.855 32.069 54.568 31.488 57.222 31.46 57.35 31.381 57.464 31.307 57.572 29.315 60.484 27.382 62.274 26.591 66.099 25.751 70.16 23.956 77.653 20.216 80.1 13.072 84.771 14.276 91.807 13.592 99.229 13.589 99.254 13.582 99.283 13.578 99.304 13.536 99.533 13.461 99.754 13.385 99.974 12.839 101.569 11.105 102.737 10.636 104.664 9.618 108.849 13.293 115.228 15.148 118.864 16.107 120.744 17.786 121.754 18.888 123.369 20.707 126.036 19.124 128.341 16.584 125.816 15.977 125.212 12.704 121.007 11.645 121.763 10.239 122.766 11.924 128.079 12.389 129.026 13.974 132.252 16.341 135.709 17.573 139.004 18.379 141.163 19.747 142.793 20.575 144.843 20.779 145.349 20.85 146.165 21.324 146.297 21.426 146.325 21.485 146.44 21.533 146.533 23.172 149.715 19.143 149.176 17.686 147.971 15.433 146.109 13.656 144.133 11.262 142.379 6.578 138.947 11.47 147.943 12.317 149.461 14.955 154.186 17.654 157.52 21.528 161.267 23.944 163.605 24.866 167.186 28.506 167.986" fill="none" stroke="#000000" stroke-width="1" stroke-opacity="1" stroke-linejoin="round" stroke-linecap="round"/>
 <path id="Путь-2" d="M83.392 74.082 L82.799 74.664 C78.211 79.161 74.429 85.296 70.15 90.191 64.125 97.082 62.093 104.941 54 110 53.785 110.134 53.195 110.815 53 111 52.171 111.788 51.755 112.354 51 113 48.203 115.393 45.967 117.326 44 120 42.101 122.582 39.413 124.489 40.173 128.945 40.76 132.387 43.301 135.084 46 138 46.083 138.09 46 138 46 138 46 138 46.925 138.828 47 139 47.342 139.783 47.496 140.235 48 141 48.173 141.263 48.909 141.7 49 142 49.052 142.173 49.743 142.776 50 143 50.165 143.143 49.902 142.936 50 143 50.167 143.11 49.91 142.832 50 143 53.61 149.737 58.405 155.088 63 161 65.366 164.044 66.685 167.095 68.557 169.453 68.819 169.784 70.098 169.731 70.218 169.748" fill="none" stroke="#000000" stroke-width="1" stroke-opacity="1" stroke-linejoin="round" stroke-linecap="round"/>
 <path id="Путь-3" d="M67.635 71.414 L67.361 72.234 C65.468 77.908 67.258 84.892 67.219 91.008 67.214 91.75 67.346 92.476 67.37 93.217" fill="none" stroke="#000000" stroke-width="1" stroke-opacity="1" stroke-linejoin="round" stroke-linecap="round"/>
</svg>
