<?xml version="1.0" encoding="UTF-8"?>
<svg width="156px" height="174px" viewBox="0 0 156 174" xmlns="http://www.w3.org/2000/svg" xmlns:xlink="http://www.w3.org/1999/xlink" version="1.1">
 <!-- Generated by Pixelmator Pro 2.1.2 -->
 <path id="Путь-копия" d="M114.686 149.808 C114.906 149.705 107.964 147.505 104.127 146.547 103.466 146.382 101.755 146.572 102.152 146.018 102.78 145.142 105.943 145.762 106.615 145.795 111.166 146.015 117.996 147.223 122.166 145.269 122.39 145.164 126.425 142.779 126.102 142.483 125.944 142.339 123.691 142.569 123.244 142.452 118.583 141.237 113.755 139.674 109.131 138.218 105.593 137.104 101.809 136.866 98.357 135.756 94.87 134.635 101.164 134.572 101.702 134.511 104.299 134.213 107.352 134.267 109.947 133.764 110.433 133.669 110.922 133.574 111.416 133.541 114.166 133.359 116.738 132.942 119.273 131.821 119.701 131.631 124.897 129.692 123.108 129.613 118.623 129.417 114.237 131.616 109.645 129.626 103.821 127.102 115.051 126.235 116.091 126.004 119.893 125.159 127.583 123.774 130.134 120.796 130.467 120.406 131.391 119.324 130.895 119.456 127.774 120.286 124.331 121.153 121.121 121.355 114.514 121.771 107.19 122.266 100.623 121.537 100.404 121.513 96.869 120.879 97.531 120.424 100.287 118.531 105.635 118.54 108.784 117.945 113.122 117.126 116.804 115.838 120.929 114.408 124.229 113.264 126.796 111.363 129.965 109.991 130.893 109.59 130.57 109.927 129.905 110.037 123.235 111.141 116.063 111.859 109.304 111.67 108.969 111.661 104.635 110.914 106.377 110.139 110.405 108.346 114.989 108.094 119.059 106.221 122.082 104.829 127.208 104.464 129.373 101.907 131.699 99.162 126.121 100.676 127.597 99.493 131.102 96.662 136.421 95.928 140.418 94.016 140.831 93.818 142.041 93.345 141.586 93.295 137.6 92.854 133.151 93.251 129.137 93.299 123.602 93.365 118.759 96.334 113.37 96.632 107.972 96.93 103.874 97.204 99.503 100.872 97.275 102.741 96.195 102.521 93.424 102.819 90.658 103.116 90.952 100.053 92.916 99.075 94.657 98.208 96.543 97.942 98.301 96.971 101.431 95.243 105.075 94.628 108.293 92.946 109.099 92.525 112.196 91.272 112.538 90.397 112.597 90.249 112.674 90.056 112.829 90.016 113.963 89.722 115.104 89.427 116.196 89 117.179 88.616 118.123 88.163 119.165 87.945 122.51 87.244 125.273 85.866 128.513 84.999 135.146 83.226 141.478 81.097 147.959 78.781 148.292 78.662 151.257 76.955 150.848 76.591 149.864 75.712 146.712 76.852 145.397 76.189 143.469 75.216 142.508 75.456 140.209 75.387 136.827 75.287 134.274 76.023 131.018 76.546 127.438 77.122 124.24 77.988 120.729 78.834 117.065 79.718 113.382 81.391 109.726 82.083 108.27 82.359 99.244 83.311 103.196 80.337 106.026 78.208 108.595 76.928 111.774 75.289 115.9 73.162 120.508 70.938 124.905 69.397 126.266 68.927 127.637 68.455 128.919 67.798 130.263 67.108 131.615 66.586 133.087 66.227 134.989 65.763 142.008 64.318 140.684 61.244 139.693 58.942 139.841 58.921 142.364 57.639 144.491 56.559 147.232 56.186 149.191 55.035 150.523 54.253 151.054 52.358 149.097 52.928 143.288 54.621 137.221 58.272 131.198 58.724 130.692 58.762 129.394 59.264 129.68 58.845 131.039 56.854 134.081 55.87 135.59 53.764 136.336 52.722 138.136 51.697 137.814 51.773 132.956 52.928 128.931 54.478 124.472 56.737 118.867 59.575 114.975 64.237 109.712 67.514 108.018 68.569 106.76 69.082 107.813 66.991 109.024 64.585 110.338 60.734 112.429 59.063 117.668 54.873 123.102 50.101 128.972 46.815 130.983 45.689 132.189 44.981 133.958 43.549 138.135 40.167 143.531 37.294 148.484 35.307 148.81 35.176 151.4 33.02 150.139 32.805 149.706 32.734 149.184 32.648 148.929 32.292 148.748 32.039 148.543 31.753 148.543 31.443 148.543 31.44 148.541 31.436 148.543 31.435 149.023 31.158 149.512 30.876 150.043 30.721 150.772 30.509 152.92 29.883 152.161 29.887 149.884 29.9 147.571 29.914 145.352 30.42 142.915 30.976 140.425 31.544 138.211 32.701 132.501 35.683 126.782 38.67 121.303 42.055 115.754 45.484 111.116 49.699 105.989 53.655 102.659 56.224 100.382 59.294 97.427 62.11 97.021 62.496 96.557 62.938 96 63 91.362 63.516 88.034 66.144 84.274 68.658 81.162 70.737 79.312 73.244 77.237 76.448 L76.884 76.992 C76.884 76.992 76.791 77.142 76.744 77.218 75.866 78.646 73.468 79.823 72.325 81.3 71.876 81.879 68.101 84.677 69.216 82.592 70.684 79.847 74.249 76.415 73.374 72.876 73.229 72.294 72.928 73.996 72.82 74.586 71.962 79.283 67.82 83.564 65.361 87.55 63.74 90.178 60.322 92.25 58.264 94.72 58.031 95 54.645 99.569 53.961 98.058 M53.961 98.058 C53.224 96.428 55.16 92.528 55.296 90.697 55.673 85.637 57.029 82.556 59.232 78.17 61.998 72.662 63.876 67.699 64.216 61.608 64.295 60.193 65.551 55.748 63.284 59.301 61.377 62.288 59.703 66.815 57.006 69.122 55.886 70.08 55.742 67.456 55.221 69.121 55.172 69.28 56.526 69.36 55.257 68.896 52.046 67.722 56.321 60.877 57.05 58.869 58.474 54.95 58.168 50.158 58.579 46.043 58.616 45.671 58.413 45.303 58.233 44.976 57.695 44.003 56.346 37.708 54.786 42.837 54.542 43.64 51.591 50.196 50.915 46.109 50.246 42.06 54.171 36.205 54.9 32.241 56.072 26.379 57.022 20.171 57.894 14.26 58.188 12.267 58.584 6.404 57.198 4.647 56.063 3.208 55.428 9.245 55.434 9.442 55.537 12.857 56.764 17.121 52.776 15.227 50.714 14.249 49.482 21.721 49.203 22.733 48.284 26.066 42.701 34.749 45.024 38.655 46.55 41.223 47.487 35.036 47.407 34.317 46.894 29.722 44.974 38.316 44.91 39.363 44.606 44.363 43.318 49.548 43.913 54.57 43.997 55.279 44.088 53.153 44.13 52.441 44.39 47.986 44.285 43.147 44.018 38.713 43.982 38.116 41.254 42.103 41.11 42.427 38.839 47.568 34.931 49.948 34.657 55.827 34.621 56.579 34.231 54.373 34.154 53.624 33.668 48.868 33.972 45.26 32.389 40.806 32.121 40.05 30.809 47.287 30.975 49.09 31.093 50.376 31.184 51.954 31.084 53.252 31.032 53.929 30.068 52.318 29.726 51.731 27.371 47.687 25.881 56.952 25.616 58.524 25.053 61.857 22.175 63.153 21.421 66.972 20.178 73.266 17.735 78.02 13.713 82.766 10.041 87.1 6.64 96.126 8.9 101.888 9.263 102.813 6.914 102.326 6.091 102.881 -1.738 108.165 8.09 120.659 11.367 125.679 11.539 125.943 15.694 132.284 12.237 130.869 11.16 130.428 7.673 123.414 5.353 125.998 4.169 127.317 7.195 133.284 7.749 134.803 9.65 140.014 12.317 143.974 14.763 148.786 15.368 149.977 14.7 151.325 15.387 152.393 15.626 152.765 14.5 152.57 14.064 152.495 11.442 152.037 8.746 148.335 6.803 146.696 6.306 146.276 3.942 143.389 2.977 144.031 2.189 144.556 3.604 148.006 3.857 148.505 5.844 152.416 8.493 156.516 10.926 160.176 12.888 163.127 16.299 165.435 19.079 167.653 20.975 169.165 23.263 170.136 25.495 171.084 M114.762 149.721 C114.742 149.753 114.65 149.824 114.686 149.808 114.861 149.726 114.76 150.199 114.719 150.389 114.185 152.865 107.309 153.157 105.464 153.278 102.29 153.486 98.663 152.943 95.62 153.38 95.408 153.41 97.409 155.811 97.27 156.926 96.857 160.231 90.308 160.188 87.824 159.326 84.55 158.19 83.927 160.797 86.972 162.085 90.575 163.61 96.017 165.713 98.685 168.734 98.822 168.889 100.646 170.935 100.68 170.909 100.712 170.883 100.73 170.844 100.754 170.811" fill="none" stroke="#000000" stroke-width="1" stroke-opacity="1" stroke-linejoin="round" stroke-linecap="round"/>
</svg>
